<?xml version="1.0" encoding="utf-8" standalone="no"?>
<!DOCTYPE svg PUBLIC "-//W3C//DTD SVG 1.1//EN"
  "http://www.w3.org/Graphics/SVG/1.1/DTD/svg11.dtd">
<!-- Created with matplotlib (https://matplotlib.org/) -->
<svg height="212.4pt" version="1.1" viewBox="0 0 212.4 212.4" width="212.4pt" xmlns="http://www.w3.org/2000/svg" xmlns:xlink="http://www.w3.org/1999/xlink">
 <metadata>
  <rdf:RDF xmlns:cc="http://creativecommons.org/ns#" xmlns:dc="http://purl.org/dc/elements/1.1/" xmlns:rdf="http://www.w3.org/1999/02/22-rdf-syntax-ns#">
   <cc:Work>
    <dc:type rdf:resource="http://purl.org/dc/dcmitype/StillImage"/>
    <dc:date>2023-08-21T16:17:23.733327</dc:date>
    <dc:format>image/svg+xml</dc:format>
    <dc:creator>
     <cc:Agent>
      <dc:title>Matplotlib v3.3.4, https://matplotlib.org/</dc:title>
     </cc:Agent>
    </dc:creator>
   </cc:Work>
  </rdf:RDF>
 </metadata>
 <defs>
  <style type="text/css">*{stroke-linecap:butt;stroke-linejoin:round;}</style>
 </defs>
 <g id="figure_1">
  <g id="patch_1">
   <path d="M 0 212.4 
L 212.4 212.4 
L 212.4 0 
L 0 0 
z
" style="fill:#ffffff;"/>
  </g>
  <g id="axes_1">
   <g id="patch_2">
    <path d="M 29.553153 183.3451 
L 206.848095 183.3451 
L 206.848095 3.00024 
L 29.553153 3.00024 
z
" style="fill:#ffffff;"/>
   </g>
   <g id="matplotlib.axis_1">
    <g id="xtick_1">
     <g id="line2d_1">
      <defs>
       <path d="M 0 0 
L 0 3.5 
" id="m58fcd5e22e" style="stroke:#000000;stroke-width:0.8;"/>
      </defs>
      <g>
       <use style="stroke:#000000;stroke-width:0.8;" x="37.612014" xlink:href="#m58fcd5e22e" y="183.3451"/>
      </g>
     </g>
     <g id="text_1">
      <!-- 1 -->
      <g transform="translate(35.494923 195.879902)scale(0.08 -0.08)">
       <defs>
        <path d="M 28.40625 67 
L 26.5 67 
C 21.09375 61.5625 14.796875 60.78125 8.40625 60.78125 
L 8.40625 55 
C 11.296875 55 16 55 20.703125 57.296875 
L 20.703125 5.765625 
L 8.90625 5.765625 
L 8.90625 0 
L 40.203125 0 
L 40.203125 5.765625 
L 28.40625 5.765625 
z
" id="CMSS17-49"/>
       </defs>
       <use transform="scale(0.996264)" xlink:href="#CMSS17-49"/>
      </g>
     </g>
    </g>
    <g id="xtick_2">
     <g id="line2d_2">
      <g>
       <use style="stroke:#000000;stroke-width:0.8;" x="77.906319" xlink:href="#m58fcd5e22e" y="183.3451"/>
      </g>
     </g>
     <g id="text_2">
      <!-- 10 -->
      <g transform="translate(73.672136 195.879902)scale(0.08 -0.08)">
       <defs>
        <path d="M 43.09375 31.9375 
C 43.09375 37.578125 43 48.078125 38.90625 56.1875 
C 34.796875 64 28.203125 66.078125 23.5 66.078125 
C 16.703125 66.078125 10.90625 62.109375 7.90625 55.78125 
C 4.703125 49.15625 3.796875 42.328125 3.796875 31.9375 
C 3.796875 24.828125 4.09375 16.109375 7.703125 8.484375 
C 11.796875 0.078125 18.703125 -2 23.40625 -2 
C 29.59375 -2 35.59375 1.265625 39 8.09375 
C 42.5 15.21875 43.09375 23.03125 43.09375 31.9375 
z
M 23.40625 4.078125 
C 15.796875 4.078125 13.5 12.671875 12.796875 15.546875 
C 11.59375 20.46875 11.40625 25.21875 11.40625 33.03125 
C 11.40625 39.15625 11.40625 46.0625 13.296875 51.515625 
C 15.59375 57.828125 19.59375 60 23.40625 60 
C 30.796875 60 33.203125 52.6875 34 50.125 
C 35.5 44.890625 35.5 38.765625 35.5 33.03125 
C 35.5 23.84375 35.5 4.078125 23.40625 4.078125 
z
" id="CMSS17-48"/>
       </defs>
       <use transform="scale(0.996264)" xlink:href="#CMSS17-49"/>
       <use transform="translate(46.843624 0)scale(0.996264)" xlink:href="#CMSS17-48"/>
      </g>
     </g>
    </g>
    <g id="xtick_3">
     <g id="line2d_3">
      <g>
       <use style="stroke:#000000;stroke-width:0.8;" x="118.200624" xlink:href="#m58fcd5e22e" y="183.3451"/>
      </g>
     </g>
     <g id="text_3">
      <!-- 100 -->
      <g transform="translate(111.84935 195.879902)scale(0.08 -0.08)">
       <use transform="scale(0.996264)" xlink:href="#CMSS17-49"/>
       <use transform="translate(46.843624 0)scale(0.996264)" xlink:href="#CMSS17-48"/>
       <use transform="translate(93.687247 0)scale(0.996264)" xlink:href="#CMSS17-48"/>
      </g>
     </g>
    </g>
    <g id="xtick_4">
     <g id="line2d_4">
      <g>
       <use style="stroke:#000000;stroke-width:0.8;" x="158.494929" xlink:href="#m58fcd5e22e" y="183.3451"/>
      </g>
     </g>
     <g id="text_4">
      <!-- 1000 -->
      <g transform="translate(150.026563 195.879902)scale(0.08 -0.08)">
       <use transform="scale(0.996264)" xlink:href="#CMSS17-49"/>
       <use transform="translate(46.843624 0)scale(0.996264)" xlink:href="#CMSS17-48"/>
       <use transform="translate(93.687247 0)scale(0.996264)" xlink:href="#CMSS17-48"/>
       <use transform="translate(140.530871 0)scale(0.996264)" xlink:href="#CMSS17-48"/>
      </g>
     </g>
    </g>
    <g id="xtick_5">
     <g id="line2d_5">
      <g>
       <use style="stroke:#000000;stroke-width:0.8;" x="198.789234" xlink:href="#m58fcd5e22e" y="183.3451"/>
      </g>
     </g>
     <g id="text_5">
      <!-- 10000 -->
      <g transform="translate(188.203777 195.879902)scale(0.08 -0.08)">
       <use transform="scale(0.996264)" xlink:href="#CMSS17-49"/>
       <use transform="translate(46.843624 0)scale(0.996264)" xlink:href="#CMSS17-48"/>
       <use transform="translate(93.687247 0)scale(0.996264)" xlink:href="#CMSS17-48"/>
       <use transform="translate(140.530871 0)scale(0.996264)" xlink:href="#CMSS17-48"/>
       <use transform="translate(187.374494 0)scale(0.996264)" xlink:href="#CMSS17-48"/>
      </g>
     </g>
    </g>
    <g id="text_6">
     <!-- number of generations (log scale) -->
     <g transform="translate(58.796178 207.407232)scale(0.08 -0.08)">
      <defs>
       <path d="M 40.90625 29.328125 
C 40.90625 35.671875 39.40625 44 28.09375 44 
C 21.703125 44 17.5 40.71875 14.703125 37.328125 
L 14.703125 43.09375 
L 7.40625 43.09375 
L 7.40625 0 
L 15 0 
L 15 24.359375 
C 15 30.6875 17.40625 37.9375 24.203125 37.9375 
C 33 37.9375 33.296875 32 33.296875 28.578125 
L 33.296875 0 
L 40.90625 0 
z
" id="CMSS17-110"/>
       <path d="M 40.90625 42.796875 
L 33.296875 42.796875 
L 33.296875 15.1875 
C 33.296875 7.78125 27.90625 4.78125 22.203125 4.78125 
C 15.59375 4.78125 15 6.984375 15 11.078125 
L 15 42.796875 
L 7.40625 42.796875 
L 7.40625 10.59375 
C 7.40625 2.796875 10.09375 -1 17 -1 
C 20.40625 -1 28.09375 -0.203125 33.5 4.78125 
L 33.5 0 
L 40.90625 0 
z
" id="CMSS17-117"/>
       <path d="M 67 29.328125 
C 67 36.0625 65.296875 44 54.09375 44 
C 46.59375 44 42.09375 39.3125 40.09375 36.421875 
C 38.296875 41.71875 34.09375 44 28.09375 44 
C 21.296875 44 17 40.125 14.703125 37.328125 
L 14.703125 43.09375 
L 7.40625 43.09375 
L 7.40625 0 
L 15 0 
L 15 24.359375 
C 15 30.296875 17.203125 37.9375 24.296875 37.9375 
C 33.40625 37.9375 33.40625 31.5 33.40625 28.578125 
L 33.40625 0 
L 41 0 
L 41 24.359375 
C 41 30.296875 43.203125 37.9375 50.296875 37.9375 
C 59.40625 37.9375 59.40625 31.5 59.40625 28.578125 
L 59.40625 0 
L 67 0 
z
" id="CMSS17-109"/>
       <path d="M 14.90625 69 
L 7.5 69 
L 7.5 -0.203125 
L 15.09375 -0.203125 
L 15.09375 4.28125 
C 18.90625 0.59375 23.5 -1 27.59375 -1 
C 37.203125 -1 45 8.578125 45 21.125 
C 45 32.59375 39 43.0625 30.09375 43.0625 
C 23.796875 43.0625 18.203125 40.484375 14.90625 37.796875 
z
M 15.09375 31.96875 
C 17.296875 34.71875 20.40625 37 24.796875 37 
C 30.703125 37 37.40625 32.765625 37.40625 21.125 
C 37.40625 8.71875 29.40625 5.078125 23.90625 5.078125 
C 21.90625 5.078125 19.796875 5.5625 17.796875 7.25 
C 15.09375 9.609375 15.09375 11.078125 15.09375 12.453125 
z
" id="CMSS17-98"/>
       <path d="M 39.09375 21.515625 
C 39.09375 24.84375 38.90625 31.296875 35.703125 36.640625 
C 32.203125 42.390625 26.5 44 22.203125 44 
C 11.796875 44 3 34.1875 3 21.484375 
C 3 9.09375 12.09375 -1 23.59375 -1 
C 28.09375 -1 33.59375 0.296875 38.59375 3.875 
C 38.59375 4.28125 38.40625 6.46875 38.296875 6.5625 
C 38.296875 6.765625 38 9.84375 38 10.25 
C 33.203125 6.359375 27.703125 5.078125 23.703125 5.078125 
C 17.296875 5.078125 10.40625 10.421875 10.09375 21.515625 
z
M 10.90625 27 
C 12.203125 32.5625 16.59375 37.828125 22.203125 37.828125 
C 23.703125 37.828125 30.703125 37.828125 32.5 27 
z
" id="CMSS17-101"/>
       <path d="M 14.90625 21.296875 
C 14.90625 30.703125 21.796875 37 30.59375 37 
L 30.59375 43.578125 
C 24.203125 43.578125 18.203125 40.390625 14.59375 35.203125 
L 14.59375 43.09375 
L 7.5 43.09375 
L 7.5 0 
L 14.90625 0 
z
" id="CMSS17-114"/>
       <path d="M 44.203125 21.1875 
C 44.203125 34 34.703125 44 23.5 44 
C 12 44 2.703125 33.703125 2.703125 21.1875 
C 2.703125 8.5 12.296875 -1 23.40625 -1 
C 34.796875 -1 44.203125 8.796875 44.203125 21.1875 
z
M 23.5 5.265625 
C 16.40625 5.265625 10.296875 11.078125 10.296875 22 
C 10.296875 33.609375 17.40625 37.921875 23.40625 37.921875 
C 29.90625 37.921875 36.59375 33.21875 36.59375 22 
C 36.59375 10.671875 30.09375 5.265625 23.5 5.265625 
z
" id="CMSS17-111"/>
       <path d="M 16.796875 37 
L 26.90625 37 
L 26.90625 42.765625 
L 16.59375 42.765625 
L 16.59375 55.609375 
C 16.59375 62.71875 22 63.9375 25.09375 63.9375 
C 26.09375 63.9375 28.90625 63.9375 32.5 62.640625 
L 32.5 69.203125 
C 30.203125 69.703125 27.40625 70 25.203125 70 
C 15.90625 70 9.40625 62.390625 9.40625 52.484375 
L 9.40625 42.765625 
L 2.5 42.765625 
L 2.5 37 
L 9.40625 37 
L 9.40625 0 
L 16.796875 0 
z
" id="CMSS17-102"/>
       <path d="M 44.5 43.875 
C 38.796875 43.875 33.90625 42.78125 29.90625 40.890625 
C 26.59375 43.390625 23.203125 43.875 20.90625 43.875 
C 12.203125 43.875 5.59375 36.703125 5.59375 28.34375 
C 5.59375 22.9375 8.59375 18.859375 8.796875 18.671875 
C 7 16.171875 6 13.484375 6 10.5 
C 6 7 7.40625 4.515625 8.5 3.125 
C 3.296875 -0.046875 2.59375 -4.90625 2.59375 -6.796875 
C 2.59375 -14.03125 11.703125 -20 23.40625 -20 
C 35.203125 -20 44.296875 -14.03125 44.296875 -6.6875 
C 44.296875 7 29 7 24.796875 7 
L 16.703125 7 
C 15.203125 7 11.203125 7 11.203125 12.359375 
C 11.203125 14.390625 12.09375 15.6875 12.203125 15.78125 
C 13.703125 14.6875 16.796875 13 20.90625 13 
C 29.203125 13 36.09375 19.96875 36.09375 28.546875 
C 36.09375 33.3125 33.90625 36.796875 33 38 
L 33.296875 38 
C 33.59375 38 37.796875 38 39.296875 38 
C 42.5 38 42.796875 37.953125 45.59375 37.796875 
z
M 20.90625 18.46875 
C 17.5 18.46875 12.703125 20.546875 12.703125 28.484375 
C 12.703125 37.109375 18.203125 38.5 20.796875 38.5 
C 24.203125 38.5 29 36.421875 29 28.484375 
C 29 19.859375 23.5 18.46875 20.90625 18.46875 
z
M 24.703125 -0.15625 
C 27.09375 -0.15625 37.203125 -0.15625 37.203125 -6.90625 
C 37.203125 -11.15625 31 -14.515625 23.5 -14.515625 
C 15.90625 -14.515625 9.703125 -11.25 9.703125 -6.796875 
C 9.703125 -6.296875 9.703125 -0.15625 16.59375 -0.15625 
z
" id="CMSS17-103"/>
       <path d="M 37.59375 27.984375 
C 37.59375 37.375 30.90625 43.875 21.90625 43.875 
C 17.5 43.875 12.703125 43.078125 7.203125 39.890625 
L 7.796875 33.359375 
C 10.296875 35.125 14.59375 38 21.796875 38 
C 26.90625 38 30 34.0625 30 27.84375 
L 30 24 
C 14 24 4 19.34375 4 11.34375 
C 4 7.203125 6.5 -1 14.796875 -1 
C 16.296875 -1 24.40625 -1 30.203125 3.390625 
L 30.203125 -0.296875 
L 37.59375 -0.296875 
z
M 30 12.75 
C 30 10.953125 30 8.5625 27 6.78125 
C 24.40625 5.078125 21.09375 5.078125 19.703125 5.078125 
C 14.703125 5.078125 11.296875 7.984375 11.296875 11.625 
C 11.296875 18.921875 26.90625 18.921875 30 18.921875 
z
" id="CMSS17-97"/>
       <path d="M 16.703125 37 
L 29.703125 37 
L 29.703125 42.765625 
L 16.703125 42.765625 
L 16.703125 55 
L 9.59375 55 
L 9.59375 42.765625 
L 1.703125 42.765625 
L 1.703125 37 
L 9.40625 37 
L 9.40625 11.703125 
C 9.40625 6 10.703125 -1 17.296875 -1 
C 22.296875 -1 26.90625 0.390625 31.296875 2.6875 
L 29.703125 8.5625 
C 27.296875 6.46875 24.40625 5.265625 21.296875 5.265625 
C 16.90625 5.265625 16.703125 10.875 16.703125 13.375 
z
" id="CMSS17-116"/>
       <path d="M 15.296875 65.359375 
L 6.90625 65.359375 
L 6.90625 57 
L 15.296875 57 
z
M 14.796875 42.796875 
L 7.40625 42.796875 
L 7.40625 0 
L 14.796875 0 
z
" id="CMSS17-105"/>
       <path d="M 32.203125 41.046875 
C 26.296875 43.859375 21.703125 43.859375 18.703125 43.859375 
C 11.59375 43.859375 3.09375 41.375 3.09375 31.296875 
C 3.09375 21.234375 14.09375 19.03125 17.09375 18.421875 
C 21.703125 17.53125 26.796875 16.53125 26.796875 11.5625 
C 26.796875 5.265625 19.59375 5.265625 18.296875 5.265625 
C 14.296875 5.265625 8.796875 6.359375 3.796875 9.96875 
L 2.59375 3.28125 
C 8.296875 0 13.796875 -1 18.40625 -1 
C 30.703125 -1 33.796875 6.5 33.796875 12.203125 
C 33.796875 17.09375 31 20.390625 29.09375 21.890625 
C 25.796875 24.5 24.59375 24.796875 16.40625 26.5 
C 15 26.703125 10.09375 27.796875 10.09375 32.28125 
C 10.09375 38 16.40625 38 17.796875 38 
C 24.296875 38 28.296875 35.984375 31 34.5 
z
" id="CMSS17-115"/>
       <path d="M 25.203125 74.5 
C 19.796875 69.015625 7.40625 56.265625 7.40625 24.8125 
C 7.40625 -6.765625 19.796875 -19.421875 25.203125 -25 
L 31.296875 -25 
C 19 -12.25 15 5.578125 15 24.703125 
C 15 43.71875 18.796875 61.65625 31.296875 74.5 
z
" id="CMSS17-40"/>
       <path d="M 14.796875 69 
L 7.40625 69 
L 7.40625 0 
L 14.796875 0 
z
" id="CMSS17-108"/>
       <path d="M 38.5 39.703125 
C 38.5 40.390625 33.90625 42.40625 32.703125 42.796875 
C 29.40625 44 25.203125 44 24.09375 44 
C 11.09375 44 3.296875 32.703125 3.296875 21.296875 
C 3.296875 9.296875 12 -1 23.703125 -1 
C 30.40625 -1 35.203125 1.1875 39.09375 3.78125 
L 38.5 10.375 
C 34.203125 7.078125 29.203125 5.265625 23.796875 5.265625 
C 16 5.265625 10.90625 12.09375 10.90625 21.390625 
C 10.90625 28.609375 14.203125 37.71875 24.203125 37.71875 
C 29.703125 37.71875 32.796875 36.609375 37.40625 33.515625 
z
" id="CMSS17-99"/>
       <path d="M 11.296875 -25 
C 16.703125 -19.515625 29.09375 -6.765625 29.09375 24.703125 
C 29.09375 56.265625 16.703125 68.921875 11.296875 74.5 
L 5.203125 74.5 
C 17.5 61.75 21.5 43.921875 21.5 24.8125 
C 21.5 5.78125 17.703125 -12.15625 5.203125 -25 
z
" id="CMSS17-41"/>
      </defs>
      <use transform="scale(0.996264)" xlink:href="#CMSS17-110"/>
      <use transform="translate(48.204943 0)scale(0.996264)" xlink:href="#CMSS17-117"/>
      <use transform="translate(96.409886 0)scale(0.996264)" xlink:href="#CMSS17-109"/>
      <use transform="translate(170.639141 0)scale(0.996264)" xlink:href="#CMSS17-98"/>
      <use transform="translate(221.446523 0)scale(0.996264)" xlink:href="#CMSS17-101"/>
      <use transform="translate(263.085345 0)scale(0.996264)" xlink:href="#CMSS17-114"/>
      <use transform="translate(326.22423 0)scale(0.996264)" xlink:href="#CMSS17-111"/>
      <use transform="translate(373.067853 0)scale(0.996264)" xlink:href="#CMSS17-102"/>
      <use transform="translate(432.923625 0)scale(0.996264)" xlink:href="#CMSS17-103"/>
      <use transform="translate(479.767249 0)scale(0.996264)" xlink:href="#CMSS17-101"/>
      <use transform="translate(521.406071 0)scale(0.996264)" xlink:href="#CMSS17-110"/>
      <use transform="translate(569.611014 0)scale(0.996264)" xlink:href="#CMSS17-101"/>
      <use transform="translate(611.249836 0)scale(0.996264)" xlink:href="#CMSS17-114"/>
      <use transform="translate(643.159608 0)scale(0.996264)" xlink:href="#CMSS17-97"/>
      <use transform="translate(688.081529 0)scale(0.996264)" xlink:href="#CMSS17-116"/>
      <use transform="translate(721.913096 0)scale(0.996264)" xlink:href="#CMSS17-105"/>
      <use transform="translate(744.093819 0)scale(0.996264)" xlink:href="#CMSS17-111"/>
      <use transform="translate(790.937442 0)scale(0.996264)" xlink:href="#CMSS17-110"/>
      <use transform="translate(839.142385 0)scale(0.996264)" xlink:href="#CMSS17-115"/>
      <use transform="translate(906.28504 0)scale(0.996264)" xlink:href="#CMSS17-40"/>
      <use transform="translate(942.718954 0)scale(0.996264)" xlink:href="#CMSS17-108"/>
      <use transform="translate(964.899677 0)scale(0.996264)" xlink:href="#CMSS17-111"/>
      <use transform="translate(1011.743301 0)scale(0.996264)" xlink:href="#CMSS17-103"/>
      <use transform="translate(1089.816037 0)scale(0.996264)" xlink:href="#CMSS17-115"/>
      <use transform="translate(1125.729579 0)scale(0.996264)" xlink:href="#CMSS17-99"/>
      <use transform="translate(1167.368401 0)scale(0.996264)" xlink:href="#CMSS17-97"/>
      <use transform="translate(1212.290322 0)scale(0.996264)" xlink:href="#CMSS17-108"/>
      <use transform="translate(1234.471045 0)scale(0.996264)" xlink:href="#CMSS17-101"/>
      <use transform="translate(1276.109867 0)scale(0.996264)" xlink:href="#CMSS17-41"/>
     </g>
    </g>
   </g>
   <g id="matplotlib.axis_2">
    <g id="ytick_1">
     <g id="line2d_6">
      <defs>
       <path d="M 0 0 
L -3.5 0 
" id="macd0de2243" style="stroke:#000000;stroke-width:0.8;"/>
      </defs>
      <g>
       <use style="stroke:#000000;stroke-width:0.8;" x="29.553153" xlink:href="#macd0de2243" y="155.267313"/>
      </g>
     </g>
     <g id="text_7">
      <!-- $\mathdefault{20}$ -->
      <g transform="translate(14.084787 158.034714)scale(0.08 -0.08)">
       <defs>
        <path d="M 41.703125 15.453125 
L 39.90625 15.453125 
C 38.90625 8.375 38.09375 7.171875 37.703125 6.5625 
C 37.203125 5.765625 30 5.765625 28.59375 5.765625 
L 9.40625 5.765625 
C 13 9.671875 20 16.75 28.5 24.953125 
C 34.59375 30.734375 41.703125 37.53125 41.703125 47.421875 
C 41.703125 59.21875 32.296875 66 21.796875 66 
C 10.796875 66 4.09375 56.3125 4.09375 47.34375 
C 4.09375 43.4375 7 42.9375 8.203125 42.9375 
C 9.203125 42.9375 12.203125 43.546875 12.203125 47.03125 
C 12.203125 50.109375 9.59375 51 8.203125 51 
C 7.59375 51 7 50.90625 6.59375 50.703125 
C 8.5 59.21875 14.296875 63.40625 20.40625 63.40625 
C 29.09375 63.40625 34.796875 56.515625 34.796875 47.421875 
C 34.796875 38.734375 29.703125 31.25 24 24.75 
L 4.09375 2.28125 
L 4.09375 0 
L 39.296875 0 
z
" id="CMR17-50"/>
        <path d="M 42 31.640625 
C 42 37.75 41.90625 48.125 37.703125 56.109375 
C 34 63.109375 28.09375 65.59375 22.90625 65.59375 
C 18.09375 65.59375 12 63.40625 8.203125 56.203125 
C 4.203125 48.71875 3.796875 39.4375 3.796875 31.640625 
C 3.796875 25.953125 3.90625 17.28125 7 9.671875 
C 11.296875 -0.609375 19 -2 22.90625 -2 
C 27.5 -2 34.5 -0.109375 38.59375 9.375 
C 41.59375 16.28125 42 24.359375 42 31.640625 
z
M 22.90625 -0.40625 
C 16.5 -0.40625 12.703125 5.078125 11.296875 12.6875 
C 10.203125 18.5625 10.203125 27.15625 10.203125 32.75 
C 10.203125 40.4375 10.203125 46.828125 11.5 52.921875 
C 13.40625 61.390625 19 64 22.90625 64 
C 27 64 32.296875 61.296875 34.203125 53.125 
C 35.5 47.4375 35.59375 40.734375 35.59375 32.75 
C 35.59375 26.25 35.59375 18.265625 34.40625 12.375 
C 32.296875 1.484375 26.40625 -0.40625 22.90625 -0.40625 
z
" id="CMR17-48"/>
       </defs>
       <use transform="scale(0.996264)" xlink:href="#CMR17-50"/>
       <use transform="translate(45.690477 0)scale(0.996264)" xlink:href="#CMR17-48"/>
      </g>
     </g>
    </g>
    <g id="ytick_2">
     <g id="line2d_7">
      <g>
       <use style="stroke:#000000;stroke-width:0.8;" x="29.553153" xlink:href="#macd0de2243" y="117.161814"/>
      </g>
     </g>
     <g id="text_8">
      <!-- $\mathdefault{40}$ -->
      <g transform="translate(14.084787 119.929215)scale(0.08 -0.08)">
       <defs>
        <path d="M 33.59375 64.40625 
C 33.59375 66.5 33.5 66.5 31.703125 66.5 
L 2 19.59375 
L 2 17 
L 27.796875 17 
L 27.796875 7.140625 
C 27.796875 3.5 27.59375 2.5 20.59375 2.5 
L 18.703125 2.5 
L 18.703125 0 
C 21.90625 0 27.296875 0 30.703125 0 
C 34.09375 0 39.5 0 42.703125 0 
L 42.703125 2.5 
L 40.796875 2.5 
C 33.796875 2.5 33.59375 3.5 33.59375 7.140625 
L 33.59375 17 
L 43.796875 17 
L 43.796875 19.59375 
L 33.59375 19.59375 
z
M 28.09375 57.859375 
L 28.09375 19.59375 
L 4 19.59375 
z
" id="CMR17-52"/>
       </defs>
       <use transform="scale(0.996264)" xlink:href="#CMR17-52"/>
       <use transform="translate(45.690477 0)scale(0.996264)" xlink:href="#CMR17-48"/>
      </g>
     </g>
    </g>
    <g id="ytick_3">
     <g id="line2d_8">
      <g>
       <use style="stroke:#000000;stroke-width:0.8;" x="29.553153" xlink:href="#macd0de2243" y="79.056315"/>
      </g>
     </g>
     <g id="text_9">
      <!-- $\mathdefault{60}$ -->
      <g transform="translate(14.084787 81.823716)scale(0.08 -0.08)">
       <defs>
        <path d="M 10.59375 34 
C 10.59375 57.65625 21.796875 63 28.296875 63 
C 30.40625 63 35.5 62.640625 37.5 59 
C 35.90625 59 32.90625 59 32.90625 55.515625 
C 32.90625 52.828125 35.09375 51.921875 36.5 51.921875 
C 37.40625 51.921875 40.09375 52.3125 40.09375 55.625 
C 40.09375 61.78125 35.09375 65.296875 28.203125 65.296875 
C 16.296875 65.296875 3.796875 52.96875 3.796875 31 
C 3.796875 3.953125 15.09375 -2 23.09375 -2 
C 32.796875 -2 42 6.671875 42 20.046875 
C 42 32.515625 33.90625 41.59375 23.703125 41.59375 
C 17.59375 41.59375 13.09375 37.609375 10.59375 30.625 
z
M 23.09375 0.390625 
C 10.796875 0.390625 10.796875 18.75 10.796875 22.4375 
C 10.796875 29.625 14.203125 40 23.5 40 
C 25.203125 40 30.09375 40 33.40625 33.125 
C 35.203125 29.21875 35.203125 25.140625 35.203125 20.140625 
C 35.203125 14.75 35.203125 10.78125 33.09375 6.78125 
C 30.90625 2.671875 27.703125 0.390625 23.09375 0.390625 
z
" id="CMR17-54"/>
       </defs>
       <use transform="scale(0.996264)" xlink:href="#CMR17-54"/>
       <use transform="translate(45.690477 0)scale(0.996264)" xlink:href="#CMR17-48"/>
      </g>
     </g>
    </g>
    <g id="ytick_4">
     <g id="line2d_9">
      <g>
       <use style="stroke:#000000;stroke-width:0.8;" x="29.553153" xlink:href="#macd0de2243" y="40.950815"/>
      </g>
     </g>
     <g id="text_10">
      <!-- $\mathdefault{80}$ -->
      <g transform="translate(14.084787 43.718216)scale(0.08 -0.08)">
       <defs>
        <path d="M 27.203125 35.375 
C 33.5 38.546875 39.90625 43.328125 39.90625 50.984375 
C 39.90625 60.015625 31.09375 65.296875 23 65.296875 
C 13.90625 65.296875 5.90625 58.734375 5.90625 49.6875 
C 5.90625 47.203125 6.5 42.921875 10.40625 39.140625 
C 11.40625 38.15625 15.59375 35.171875 18.296875 33.28125 
C 13.796875 30.984375 3.296875 25.53125 3.296875 14.59375 
C 3.296875 4.359375 13.09375 -2 22.796875 -2 
C 33.5 -2 42.5 5.65625 42.5 15.78125 
C 42.5 24.84375 36.40625 29.015625 32.40625 31.703125 
z
M 14.09375 44.09375 
C 13.296875 44.59375 9.296875 47.671875 9.296875 52.359375 
C 9.296875 58.421875 15.59375 63 22.796875 63 
C 30.703125 63 36.5 57.4375 36.5 50.96875 
C 36.5 41.703125 26.09375 36.421875 25.59375 36.421875 
C 25.5 36.421875 25.40625 36.421875 24.59375 37.03125 
z
M 32.5 23.734375 
C 34 22.640625 38.796875 19.375 38.796875 13.296875 
C 38.796875 5.953125 31.40625 0.390625 23 0.390625 
C 13.90625 0.390625 7 6.84375 7 14.6875 
C 7 22.546875 13.09375 29.09375 20 32.1875 
z
" id="CMR17-56"/>
       </defs>
       <use transform="scale(0.996264)" xlink:href="#CMR17-56"/>
       <use transform="translate(45.690477 0)scale(0.996264)" xlink:href="#CMR17-48"/>
      </g>
     </g>
    </g>
    <g id="text_11">
     <!-- average solution cost -->
     <g transform="translate(8.535042 130.271564)rotate(-90)scale(0.08 -0.08)">
      <defs>
       <path d="M 41.796875 43 
L 34 43 
L 27.296875 24.3125 
C 25.203125 18.203125 22.203125 9.796875 21.703125 5.5 
L 21.59375 5.5 
C 21.40625 7.3125 20.59375 9.90625 20.09375 11.703125 
C 19.5 13.90625 18.703125 16.5 18.09375 18.3125 
L 9.296875 43 
L 1.296875 43 
L 17.09375 0 
L 26 0 
z
" id="CMSS17-118"/>
      </defs>
      <use transform="scale(0.996264)" xlink:href="#CMSS17-97"/>
      <use transform="translate(44.921921 0)scale(0.996264)" xlink:href="#CMSS17-118"/>
      <use transform="translate(87.922062 0)scale(0.996264)" xlink:href="#CMSS17-101"/>
      <use transform="translate(129.560884 0)scale(0.996264)" xlink:href="#CMSS17-114"/>
      <use transform="translate(161.470657 0)scale(0.996264)" xlink:href="#CMSS17-97"/>
      <use transform="translate(206.392578 0)scale(0.996264)" xlink:href="#CMSS17-103"/>
      <use transform="translate(253.236201 0)scale(0.996264)" xlink:href="#CMSS17-101"/>
      <use transform="translate(326.104136 0)scale(0.996264)" xlink:href="#CMSS17-115"/>
      <use transform="translate(362.017678 0)scale(0.996264)" xlink:href="#CMSS17-111"/>
      <use transform="translate(408.861301 0)scale(0.996264)" xlink:href="#CMSS17-108"/>
      <use transform="translate(431.042024 0)scale(0.996264)" xlink:href="#CMSS17-117"/>
      <use transform="translate(479.246968 0)scale(0.996264)" xlink:href="#CMSS17-116"/>
      <use transform="translate(513.078534 0)scale(0.996264)" xlink:href="#CMSS17-105"/>
      <use transform="translate(535.259257 0)scale(0.996264)" xlink:href="#CMSS17-111"/>
      <use transform="translate(582.102881 0)scale(0.996264)" xlink:href="#CMSS17-110"/>
      <use transform="translate(661.536937 0)scale(0.996264)" xlink:href="#CMSS17-99"/>
      <use transform="translate(703.175759 0)scale(0.996264)" xlink:href="#CMSS17-111"/>
      <use transform="translate(750.019382 0)scale(0.996264)" xlink:href="#CMSS17-115"/>
      <use transform="translate(785.932924 0)scale(0.996264)" xlink:href="#CMSS17-116"/>
     </g>
    </g>
   </g>
   <g id="line2d_10">
    <path clip-path="url(#pa225343532)" d="M 37.612014 11.197734 
L 77.906319 15.470168 
L 118.200624 47.532674 
L 158.494929 109.252036 
L 198.789234 117.527473 
" style="fill:none;stroke:#000000;stroke-linecap:square;stroke-width:1.5;"/>
   </g>
   <g id="line2d_11">
    <path clip-path="url(#pa225343532)" d="M 37.612014 11.77509 
L 77.906319 17.567895 
L 118.200624 52.748124 
L 158.494929 108.732416 
L 198.789234 117.681435 
" style="fill:none;stroke:#a52a2a;stroke-linecap:square;stroke-width:1.5;"/>
   </g>
   <g id="line2d_12">
    <path clip-path="url(#pa225343532)" d="M 37.612014 11.929051 
L 77.906319 18.337703 
L 118.200624 40.989306 
L 158.494929 104.132813 
L 198.789234 132.50024 
" style="fill:none;stroke:#ff0000;stroke-linecap:square;stroke-width:1.5;"/>
   </g>
   <g id="line2d_13">
    <path clip-path="url(#pa225343532)" d="M 37.612014 11.794335 
L 77.906319 18.414684 
L 118.200624 43.106278 
L 158.494929 110.291277 
L 198.789234 141.911144 
" style="fill:none;stroke:#fa8072;stroke-linecap:square;stroke-width:1.5;"/>
   </g>
   <g id="line2d_14">
    <path clip-path="url(#pa225343532)" d="M 37.612014 11.582638 
L 77.906319 19.742603 
L 118.200624 60.003565 
L 158.494929 133.731933 
L 198.789234 175.147607 
" style="fill:none;stroke:#ffa500;stroke-linecap:square;stroke-width:1.5;"/>
   </g>
   <g id="line2d_15">
    <path clip-path="url(#pa225343532)" d="M 37.612014 11.832825 
L 77.906319 19.684868 
L 118.200624 60.850354 
L 158.494929 117.161814 
L 198.789234 126.457247 
" style="fill:none;stroke:#ffd700;stroke-linecap:square;stroke-width:1.5;"/>
   </g>
   <g id="line2d_16">
    <path clip-path="url(#pa225343532)" d="M 37.612014 11.640373 
L 77.906319 15.701111 
L 118.200624 36.793852 
L 158.494929 104.690923 
L 198.789234 116.642194 
" style="fill:none;stroke:#008000;stroke-linecap:square;stroke-width:1.5;"/>
   </g>
   <g id="line2d_17">
    <path clip-path="url(#pa225343532)" d="M 37.612014 11.929051 
L 77.906319 16.086015 
L 118.200624 37.736867 
L 158.494929 103.978851 
L 198.789234 116.545968 
" style="fill:none;stroke:#00ff00;stroke-linecap:square;stroke-width:1.5;"/>
   </g>
   <g id="line2d_18">
    <path clip-path="url(#pa225343532)" d="M 37.612014 11.409431 
L 77.906319 18.684117 
L 118.200624 55.865847 
L 158.494929 114.89088 
L 198.789234 127.515733 
" style="fill:none;stroke:#0000ff;stroke-linecap:square;stroke-width:1.5;"/>
   </g>
   <g id="line2d_19">
    <path clip-path="url(#pa225343532)" d="M 37.612014 11.659618 
L 77.906319 15.778092 
L 118.200624 42.971562 
L 158.494929 106.461482 
L 198.789234 128.72818 
" style="fill:none;stroke:#00ffff;stroke-linecap:square;stroke-width:1.5;"/>
   </g>
   <g id="line2d_20">
    <path clip-path="url(#pa225343532)" d="M 37.612014 11.77509 
L 77.906319 18.645627 
L 118.200624 64.218264 
L 158.494929 110.907124 
L 198.789234 118.297281 
" style="fill:none;stroke:#708090;stroke-linecap:square;stroke-width:1.5;"/>
   </g>
   <g id="line2d_21">
    <path clip-path="url(#pa225343532)" d="M 37.612014 11.582638 
L 77.906319 16.06677 
L 118.200624 65.892597 
L 158.494929 113.062586 
L 198.789234 119.317277 
" style="fill:none;stroke:#ff00ff;stroke-linecap:square;stroke-width:1.5;"/>
   </g>
   <g id="line2d_22">
    <path clip-path="url(#pa225343532)" d="M 37.612014 11.77509 
L 77.906319 16.836578 
L 118.200624 71.974081 
L 158.494929 112.793153 
L 198.789234 119.375012 
" style="fill:none;stroke:#800080;stroke-linecap:square;stroke-width:1.5;"/>
   </g>
   <g id="patch_3">
    <path d="M 29.553153 183.3451 
L 29.553153 3.00024 
" style="fill:none;stroke:#000000;stroke-linecap:square;stroke-linejoin:miter;stroke-width:0.8;"/>
   </g>
   <g id="patch_4">
    <path d="M 206.848095 183.3451 
L 206.848095 3.00024 
" style="fill:none;stroke:#000000;stroke-linecap:square;stroke-linejoin:miter;stroke-width:0.8;"/>
   </g>
   <g id="patch_5">
    <path d="M 29.553153 183.3451 
L 206.848095 183.3451 
" style="fill:none;stroke:#000000;stroke-linecap:square;stroke-linejoin:miter;stroke-width:0.8;"/>
   </g>
   <g id="patch_6">
    <path d="M 29.553153 3.00024 
L 206.848095 3.00024 
" style="fill:none;stroke:#000000;stroke-linecap:square;stroke-linejoin:miter;stroke-width:0.8;"/>
   </g>
   <g id="legend_1">
    <g id="patch_7">
     <path d="M 35.153153 179.3451 
L 86.15825 179.3451 
Q 87.75825 179.3451 87.75825 177.7451 
L 87.75825 26.006605 
Q 87.75825 24.406605 86.15825 24.406605 
L 35.153153 24.406605 
Q 33.553153 24.406605 33.553153 26.006605 
L 33.553153 177.7451 
Q 33.553153 179.3451 35.153153 179.3451 
z
" style="fill:#ffffff;opacity:0.8;stroke:#cccccc;stroke-linejoin:miter;"/>
    </g>
    <g id="line2d_23">
     <path d="M 36.753153 30.885355 
L 52.753153 30.885355 
" style="fill:none;stroke:#000000;stroke-linecap:square;stroke-width:1.5;"/>
    </g>
    <g id="line2d_24"/>
    <g id="text_12">
     <!-- Swap -->
     <g transform="translate(59.153153 33.685355)scale(0.08 -0.08)">
      <defs>
       <path d="M 43.703125 65.140625 
C 39.296875 67.71875 34.5 70 26.40625 70 
C 13.5 70 5.203125 60.609375 5.203125 51.03125 
C 5.203125 47.265625 6.296875 43.015625 10.203125 38.671875 
C 14.09375 34.3125 18.5 33.140625 24.09375 31.765625 
C 26.40625 31.15625 30.296875 30.0625 31 29.78125 
C 36.59375 27.609375 39.296875 22.5625 39.296875 17.8125 
C 39.296875 11.59375 34.40625 4.96875 25.703125 4.96875 
C 22.703125 4.96875 13.90625 4.96875 5.59375 12.796875 
L 4.203125 4.96875 
C 12.40625 -1 21.296875 -2 25.796875 -2 
C 38.09375 -2 46.90625 7.625 46.90625 18.53125 
C 46.90625 22.5 45.703125 27.546875 41.5 32.203125 
C 37.40625 36.671875 33.796875 37.65625 25.59375 39.828125 
C 20.90625 41.03125 17.90625 41.828125 15.40625 44.890625 
C 13.703125 47.078125 12.796875 49.15625 12.796875 51.828125 
C 12.796875 57.390625 17.59375 63.4375 26.40625 63.4375 
C 30.796875 63.4375 36.5 62.53125 42.296875 57.1875 
z
" id="CMSS17-83"/>
       <path d="M 62.703125 43 
L 55.09375 43 
L 49.796875 25.015625 
C 48.703125 21.21875 45.59375 10.703125 45.203125 5.796875 
L 45.09375 5.796875 
C 44.90625 8.8125 43.203125 16 40.40625 25.515625 
L 35.296875 43 
L 28.40625 43 
L 23.40625 25.90625 
C 20.90625 17.203125 19 9.796875 18.796875 5.796875 
L 18.703125 5.796875 
C 18.296875 11.703125 14.203125 25.515625 13.59375 27.703125 
L 9.09375 43 
L 1.296875 43 
L 14.296875 0 
L 21.90625 0 
C 27.09375 17.125 31.09375 30.359375 31.40625 37.03125 
C 31.59375 33.75 33.296875 26.671875 34.296875 23.1875 
L 40.90625 0 
L 49.703125 0 
z
" id="CMSS17-119"/>
       <path d="M 15.09375 5.203125 
C 18.40625 2.015625 22.90625 -0.078125 27.703125 -0.078125 
C 37 -0.078125 45 9.421875 45 22.0625 
C 45 33.734375 39 44 30.40625 44 
C 25.40625 44 19.40625 42.21875 14.90625 38.625 
L 14.90625 43.203125 
L 7.5 43.203125 
L 7.5 -19 
L 15.09375 -19 
z
M 15.09375 32.8125 
C 15.90625 34 19.296875 37.734375 24.796875 37.734375 
C 31.796875 37.734375 37.40625 30.625 37.40625 22.0625 
C 37.40625 12.296875 30.59375 6 23.90625 6 
C 21.90625 6 19.796875 6.484375 17.796875 8.171875 
C 15.09375 10.53125 15.09375 12 15.09375 13.390625 
z
" id="CMSS17-112"/>
      </defs>
      <use transform="scale(0.996264)" xlink:href="#CMSS17-83"/>
      <use transform="translate(52.048516 0)scale(0.996264)" xlink:href="#CMSS17-119"/>
      <use transform="translate(113.265607 0)scale(0.996264)" xlink:href="#CMSS17-97"/>
      <use transform="translate(158.187528 0)scale(0.996264)" xlink:href="#CMSS17-112"/>
     </g>
    </g>
    <g id="line2d_25">
     <path d="M 36.753153 42.627855 
L 52.753153 42.627855 
" style="fill:none;stroke:#a52a2a;stroke-linecap:square;stroke-width:1.5;"/>
    </g>
    <g id="line2d_26"/>
    <g id="text_13">
     <!-- CX -->
     <g transform="translate(59.153153 45.427855)scale(0.08 -0.08)">
      <defs>
       <path d="M 54.703125 11.15625 
C 48 6.671875 44.90625 5.375 36.796875 5.375 
C 22.796875 5.375 14.59375 20.359375 14.59375 34.046875 
C 14.59375 48.625 23 63 37.203125 63 
C 43.59375 63 47.796875 61.21875 52.90625 58.046875 
L 54.296875 65.890625 
C 49.5 68.28125 43.40625 69.375 37.296875 69.375 
C 18.09375 69.375 6.203125 51.8125 6.203125 34.046875 
C 6.203125 14.484375 20.296875 -1 36.296875 -1 
C 44.90625 -1 47.90625 -0.296875 55.296875 4.375 
z
" id="CMSS17-67"/>
       <path d="M 34.59375 36.390625 
L 57.203125 69 
L 48 69 
L 30.5 43.15625 
L 12.5 69 
L 2.59375 69 
L 26.40625 36.390625 
L 1.296875 0 
L 10.5 0 
L 30.5 30.328125 
L 51.203125 0 
L 61.09375 0 
z
" id="CMSS17-88"/>
      </defs>
      <use transform="scale(0.996264)" xlink:href="#CMSS17-67"/>
      <use transform="translate(59.855772 0)scale(0.996264)" xlink:href="#CMSS17-88"/>
     </g>
    </g>
    <g id="line2d_27">
     <path d="M 36.753153 54.370355 
L 52.753153 54.370355 
" style="fill:none;stroke:#ff0000;stroke-linecap:square;stroke-width:1.5;"/>
    </g>
    <g id="line2d_28"/>
    <g id="text_14">
     <!-- ER -->
     <g transform="translate(59.153153 57.170355)scale(0.08 -0.08)">
      <defs>
       <path d="M 30.59375 6.765625 
C 22.59375 6.765625 19 6.765625 17.203125 6.765625 
L 17.203125 32.921875 
L 48.203125 32.921875 
L 48.203125 39 
L 17.203125 39 
L 17.203125 62.640625 
L 30.09375 62.640625 
C 31.296875 62.640625 32.5 62.640625 33.703125 62.640625 
L 50.796875 62.640625 
L 50.796875 69 
L 8.796875 69 
L 8.796875 0 
L 52.09375 0 
L 52.09375 6.765625 
z
" id="CMSS17-69"/>
       <path d="M 39.40625 32.953125 
L 39.59375 33.046875 
C 55.203125 38.421875 55.296875 49.171875 55.296875 51.0625 
C 55.296875 60.515625 45.703125 69.578125 31.296875 69.578125 
L 8.90625 69.578125 
L 8.90625 0.5 
L 17.09375 0.5 
L 17.09375 32 
L 31.796875 32 
L 49.5 0.5 
L 57.90625 0.5 
z
M 17.09375 38.078125 
L 17.09375 64 
L 30.203125 64 
C 42.90625 64 47.40625 56.828125 47.40625 51.046875 
C 47.40625 45.65625 43.40625 38.078125 30.203125 38.078125 
z
" id="CMSS17-82"/>
      </defs>
      <use transform="scale(0.996264)" xlink:href="#CMSS17-69"/>
      <use transform="translate(55.892013 0)scale(0.996264)" xlink:href="#CMSS17-82"/>
     </g>
    </g>
    <g id="line2d_29">
     <path d="M 36.753153 66.112855 
L 52.753153 66.112855 
" style="fill:none;stroke:#fa8072;stroke-linecap:square;stroke-width:1.5;"/>
    </g>
    <g id="line2d_30"/>
    <g id="text_15">
     <!-- EER -->
     <g transform="translate(59.153153 68.912855)scale(0.08 -0.08)">
      <use transform="scale(0.996264)" xlink:href="#CMSS17-69"/>
      <use transform="translate(55.892013 0)scale(0.996264)" xlink:href="#CMSS17-69"/>
      <use transform="translate(111.784026 0)scale(0.996264)" xlink:href="#CMSS17-82"/>
     </g>
    </g>
    <g id="line2d_31">
     <path d="M 36.753153 77.855355 
L 52.753153 77.855355 
" style="fill:none;stroke:#ffa500;stroke-linecap:square;stroke-width:1.5;"/>
    </g>
    <g id="line2d_32"/>
    <g id="text_16">
     <!-- OX -->
     <g transform="translate(59.153153 80.655355)scale(0.08 -0.08)">
      <defs>
       <path d="M 64 34.03125 
C 64 54.734375 50.296875 70.265625 34.59375 70.265625 
C 18.90625 70.265625 5.203125 54.640625 5.203125 34.03125 
C 5.203125 13.234375 19.09375 -2 34.59375 -2 
C 50.09375 -2 64 13.234375 64 34.03125 
z
M 34.59375 4.265625 
C 23.59375 4.265625 13.59375 16.515625 13.59375 35.328125 
C 13.59375 53.640625 24.203125 64 34.59375 64 
C 45 64 55.59375 53.640625 55.59375 35.328125 
C 55.59375 16.421875 45.5 4.265625 34.59375 4.265625 
z
" id="CMSS17-79"/>
      </defs>
      <use transform="scale(0.996264)" xlink:href="#CMSS17-79"/>
      <use transform="translate(66.421801 0)scale(0.996264)" xlink:href="#CMSS17-88"/>
     </g>
    </g>
    <g id="line2d_33">
     <path d="M 36.753153 89.597855 
L 52.753153 89.597855 
" style="fill:none;stroke:#ffd700;stroke-linecap:square;stroke-width:1.5;"/>
    </g>
    <g id="line2d_34"/>
    <g id="text_17">
     <!-- NWOX -->
     <g transform="translate(59.153153 92.397855)scale(0.08 -0.08)">
      <defs>
       <path d="M 22.90625 65.3125 
L 21.09375 69 
L 8.796875 69 
L 8.796875 0 
L 16.59375 0 
L 16.59375 61.34375 
L 16.703125 61.4375 
C 17.40625 59.640625 17.796875 58.75 21.90625 49.90625 
L 43.296875 3.6875 
L 45.09375 0 
L 57.40625 0 
L 57.40625 69 
L 49.59375 69 
L 49.59375 7.65625 
L 49.5 7.546875 
C 48.796875 9.34375 48.40625 10.234375 44.296875 19.078125 
z
" id="CMSS17-78"/>
       <path d="M 87.203125 69 
L 79.59375 69 
L 71.203125 38.078125 
C 69.90625 33.09375 68.703125 28.140625 67.5 23.15625 
C 65.703125 15.796875 64.40625 10.640625 64.203125 8.046875 
L 64.09375 8.046875 
C 63.90625 10.734375 62.59375 16.390625 61 22.765625 
C 59.796875 28.046875 58.5 33.296875 57.09375 38.46875 
L 48.796875 69 
L 40.40625 69 
L 32.5 40.03125 
L 28.5 24.203125 
C 25.5 11.671875 25.40625 9.875 25.203125 7.890625 
L 25.09375 7.890625 
C 25.09375 8.484375 24.703125 11.765625 21.90625 23.40625 
C 20.5 29.1875 19.09375 35.0625 17.59375 40.640625 
L 9.90625 69 
L 1.296875 69 
L 20.296875 0 
L 28.59375 0 
L 36.5 28.734375 
L 40.5 44.546875 
C 43.203125 55.6875 43.796875 58.46875 44 60.953125 
L 44.09375 60.953125 
C 44.09375 60.5625 45 54.28125 48.90625 39.765625 
L 59.5 0 
L 68.203125 0 
z
" id="CMSS17-87"/>
      </defs>
      <use transform="scale(0.996264)" xlink:href="#CMSS17-78"/>
      <use transform="translate(66.061519 0)scale(0.996264)" xlink:href="#CMSS17-87"/>
      <use transform="translate(151.701231 0)scale(0.996264)" xlink:href="#CMSS17-79"/>
      <use transform="translate(218.123033 0)scale(0.996264)" xlink:href="#CMSS17-88"/>
     </g>
    </g>
    <g id="line2d_35">
     <path d="M 36.753153 101.340355 
L 52.753153 101.340355 
" style="fill:none;stroke:#008000;stroke-linecap:square;stroke-width:1.5;"/>
    </g>
    <g id="line2d_36"/>
    <g id="text_18">
     <!-- UOBX -->
     <g transform="translate(59.153153 104.140355)scale(0.08 -0.08)">
      <defs>
       <path d="M 55.5 68.5 
L 47.90625 68.5 
L 47.90625 22.640625 
C 47.90625 9.4375 39.796875 3.578125 32.40625 3.578125 
C 24.796875 3.578125 17.203125 9.734375 17.203125 22.546875 
L 17.203125 68.5 
L 8.796875 68.5 
L 8.796875 22.71875 
C 8.796875 8.421875 19.90625 -2 32.296875 -2 
C 44.703125 -2 55.5 8.421875 55.5 22.71875 
z
" id="CMSS17-85"/>
       <path d="M 8.90625 69 
L 8.90625 0 
L 33.796875 0 
C 47.40625 0 57.296875 8.96875 57.296875 18.75 
C 57.296875 26.328125 50.796875 34 39.09375 36.203125 
C 52.09375 39.96875 54.703125 47.5 54.703125 51.765625 
C 54.703125 60.671875 44.90625 69 31.203125 69 
z
M 17 39 
L 17 63.421875 
L 28.5 63.421875 
C 38.796875 63.421875 46.90625 58.1875 46.90625 51.65625 
C 46.90625 45.71875 40.5 39 27.59375 39 
z
M 17 5.578125 
L 17 32.921875 
L 30.296875 32.921875 
C 41.09375 32.921875 49.40625 26.234375 49.40625 18.84375 
C 49.40625 12.0625 42.09375 5.578125 31 5.578125 
z
" id="CMSS17-66"/>
      </defs>
      <use transform="scale(0.996264)" xlink:href="#CMSS17-85"/>
      <use transform="translate(64.13974 0)scale(0.996264)" xlink:href="#CMSS17-79"/>
      <use transform="translate(133.163996 0)scale(0.996264)" xlink:href="#CMSS17-66"/>
      <use transform="translate(195.502036 0)scale(0.996264)" xlink:href="#CMSS17-88"/>
     </g>
    </g>
    <g id="line2d_37">
     <path d="M 36.753153 113.082855 
L 52.753153 113.082855 
" style="fill:none;stroke:#00ff00;stroke-linecap:square;stroke-width:1.5;"/>
    </g>
    <g id="line2d_38"/>
    <g id="text_19">
     <!-- OX2 -->
     <g transform="translate(59.153153 115.882855)scale(0.08 -0.08)">
      <defs>
       <path d="M 25.796875 21.203125 
C 28.59375 24.078125 32.796875 27.5625 35.703125 31.046875 
C 38.5 34.4375 42.203125 39.234375 42.203125 46.203125 
C 42.203125 57.140625 34.796875 67 22.203125 67 
C 12.296875 67 6.59375 60.828125 3.90625 51.15625 
L 7.796875 45.765625 
C 10 54.84375 13.09375 60.625 20.90625 60.625 
C 29.5 60.625 34.296875 53.640625 34.296875 45.96875 
C 34.296875 36.796875 27.296875 29.703125 22 24.421875 
C 16.09375 18.546875 10.296875 12.5625 4.703125 6.375 
L 4.703125 0 
L 42.203125 0 
L 42.203125 6.765625 
L 25.203125 6.765625 
C 24 6.765625 22.796875 6.765625 21.59375 6.765625 
L 11.59375 6.765625 
L 11.59375 6.859375 
z
" id="CMSS17-50"/>
      </defs>
      <use transform="scale(0.996264)" xlink:href="#CMSS17-79"/>
      <use transform="translate(66.421801 0)scale(0.996264)" xlink:href="#CMSS17-88"/>
      <use transform="translate(128.639656 0)scale(0.996264)" xlink:href="#CMSS17-50"/>
     </g>
    </g>
    <g id="line2d_39">
     <path d="M 36.753153 124.825355 
L 52.753153 124.825355 
" style="fill:none;stroke:#0000ff;stroke-linecap:square;stroke-width:1.5;"/>
    </g>
    <g id="line2d_40"/>
    <g id="text_20">
     <!-- PPX -->
     <g transform="translate(59.153153 127.625355)scale(0.08 -0.08)">
      <defs>
       <path d="M 32.90625 29 
C 44.90625 29 54.703125 38.328125 54.703125 49.34375 
C 54.703125 60.15625 45.296875 69.578125 32.296875 69.578125 
L 8.90625 69.578125 
L 8.90625 0 
L 17.296875 0 
L 17.296875 29 
z
M 30.09375 64 
C 41.703125 64 46.796875 56.671875 46.796875 49.328125 
C 46.796875 42.5 42.09375 34.78125 30.09375 34.78125 
L 17.09375 34.78125 
L 17.09375 64 
z
" id="CMSS17-80"/>
      </defs>
      <use transform="scale(0.996264)" xlink:href="#CMSS17-80"/>
      <use transform="translate(59.735586 0)scale(0.996264)" xlink:href="#CMSS17-80"/>
      <use transform="translate(119.471173 0)scale(0.996264)" xlink:href="#CMSS17-88"/>
     </g>
    </g>
    <g id="line2d_41">
     <path d="M 36.753153 136.567855 
L 52.753153 136.567855 
" style="fill:none;stroke:#00ffff;stroke-linecap:square;stroke-width:1.5;"/>
    </g>
    <g id="line2d_42"/>
    <g id="text_21">
     <!-- UPPX -->
     <g transform="translate(59.153153 139.367855)scale(0.08 -0.08)">
      <use transform="scale(0.996264)" xlink:href="#CMSS17-85"/>
      <use transform="translate(64.13974 0)scale(0.996264)" xlink:href="#CMSS17-80"/>
      <use transform="translate(123.875327 0)scale(0.996264)" xlink:href="#CMSS17-80"/>
      <use transform="translate(183.610913 0)scale(0.996264)" xlink:href="#CMSS17-88"/>
     </g>
    </g>
    <g id="line2d_43">
     <path d="M 36.753153 148.310355 
L 52.753153 148.310355 
" style="fill:none;stroke:#708090;stroke-linecap:square;stroke-width:1.5;"/>
    </g>
    <g id="line2d_44"/>
    <g id="text_22">
     <!-- PMX -->
     <g transform="translate(59.153153 151.110355)scale(0.08 -0.08)">
      <defs>
       <path d="M 49.90625 37.046875 
L 45.09375 23.015625 
C 44.296875 20.421875 41.59375 12.359375 41 9.171875 
L 40.90625 9.171875 
C 40.59375 11.171875 40 13.265625 38.40625 18.34375 
C 37.5 21.328125 36.5 24.40625 35.5 27.203125 
L 20.703125 69 
L 9 69 
L 9 0 
L 16.796875 0 
L 16.796875 60.9375 
L 16.90625 60.9375 
C 16.90625 60.84375 17.796875 56.453125 23.90625 39.046875 
L 37.09375 1.5 
L 44.5 1.5 
L 56.40625 34.859375 
C 57.203125 37.15625 59.703125 44.421875 60.796875 47.90625 
C 61.796875 50.890625 64.296875 58.25 64.90625 61.140625 
L 65 61.140625 
L 65 0 
L 72.90625 0 
L 72.90625 69 
L 61.296875 69 
z
" id="CMSS17-77"/>
      </defs>
      <use transform="scale(0.996264)" xlink:href="#CMSS17-80"/>
      <use transform="translate(59.735586 0)scale(0.996264)" xlink:href="#CMSS17-77"/>
      <use transform="translate(141.411616 0)scale(0.996264)" xlink:href="#CMSS17-88"/>
     </g>
    </g>
    <g id="line2d_45">
     <path d="M 36.753153 160.052855 
L 52.753153 160.052855 
" style="fill:none;stroke:#ff00ff;stroke-linecap:square;stroke-width:1.5;"/>
    </g>
    <g id="line2d_46"/>
    <g id="text_23">
     <!-- UPMX -->
     <g transform="translate(59.153153 162.852855)scale(0.08 -0.08)">
      <use transform="scale(0.996264)" xlink:href="#CMSS17-85"/>
      <use transform="translate(64.13974 0)scale(0.996264)" xlink:href="#CMSS17-80"/>
      <use transform="translate(123.875327 0)scale(0.996264)" xlink:href="#CMSS17-77"/>
      <use transform="translate(205.551356 0)scale(0.996264)" xlink:href="#CMSS17-88"/>
     </g>
    </g>
    <g id="line2d_47">
     <path d="M 36.753153 171.795355 
L 52.753153 171.795355 
" style="fill:none;stroke:#800080;stroke-linecap:square;stroke-width:1.5;"/>
    </g>
    <g id="line2d_48"/>
    <g id="text_24">
     <!-- PBX -->
     <g transform="translate(59.153153 174.595355)scale(0.08 -0.08)">
      <use transform="scale(0.996264)" xlink:href="#CMSS17-80"/>
      <use transform="translate(59.735586 0)scale(0.996264)" xlink:href="#CMSS17-66"/>
      <use transform="translate(122.073626 0)scale(0.996264)" xlink:href="#CMSS17-88"/>
     </g>
    </g>
   </g>
  </g>
 </g>
 <defs>
  <clipPath id="pa225343532">
   <rect height="180.34486" width="177.294942" x="29.553153" y="3.00024"/>
  </clipPath>
 </defs>
</svg>
